Coordinates
version=1
nRows=29
nColumns=24
inDegrees=yes

Units are S.I. units (second, meters, Newtons, ...)
Angles are in degrees.

endheader
time	pelvis_tilt	pelvis_list	pelvis_rotation	pelvis_tx	pelvis_ty	pelvis_tz	hip_flexion_r	hip_adduction_r	hip_rotation_r	knee_angle_r	ankle_angle_r	subtalar_angle_r	mtp_angle_r	hip_flexion_l	hip_adduction_l	hip_rotation_l	knee_angle_l	ankle_angle_l	subtalar_angle_l	mtp_angle_l	lumbar_extension	lumbar_bending	lumbar_rotation
      1.36666667	      5.55101615	     -2.71887092	     -4.50719457	      0.59737778	      1.01712303	      0.03136799	    -16.50614679	      0.26963075	     -1.56702183	    -34.35232817	      6.75701164	      5.04339115	      0.00000000	     17.92805425	     -4.28114929	    -11.55135811	    -19.16743098	     -1.89339926	     15.12475791	      0.00000000	    -18.55107315	     -1.97529926	      2.71592147
      1.38333333	      5.71789795	     -2.15636540	     -4.35382233	      0.59979385	      1.01885932	      0.02764396	    -13.87584366	     -1.17018932	     -3.26886825	    -40.53819425	      2.58379881	      5.04339077	      0.00000000	     16.91618542	     -3.48889416	    -11.60841761	    -20.04226595	     -1.11649971	     15.12475794	      0.00000000	    -18.48298194	     -2.65458907	      2.29163325
      1.40000000	      5.82538133	     -1.53896060	     -4.20427428	      0.60146894	      1.02059582	      0.02399853	    -10.96264854	     -2.86296503	     -4.95088256	    -46.49328988	     -1.92022749	      5.04338915	      0.00000000	     15.82602636	     -2.60016910	    -11.64851904	    -20.57913752	     -0.17109594	     15.12475803	      0.00000000	    -18.32803679	     -3.33591150	      1.63232245
      1.41666667	      6.05706644	     -0.91702546	     -4.10298254	      0.60283714	      1.02304047	      0.02015009	     -8.23074119	     -4.66826574	     -6.32345632	    -51.74384410	     -5.80689646	      5.04338651	      0.00000000	     14.26543090	     -1.60709681	    -11.74967549	    -20.42741112	      0.72339534	     15.12475807	      0.00000000	    -18.45347703	     -3.97427500	      1.00811265
      1.43333333	      6.21578360	     -0.21874689	     -4.27649293	      0.60271444	      1.02524268	      0.01671100	     -5.23207460	     -6.44288977	     -6.86634686	    -56.72856692	     -7.84865584	      5.04338355	      0.00000000	     12.72584231	     -0.56591321	    -12.08590386	    -20.01473933	      1.55212110	     15.12475822	      0.00000000	    -18.53261824	     -4.66872003	      0.65324599
      1.45000000	      6.42600116	      0.25606945	     -4.44894010	      0.60227857	      1.02790846	      0.01333435	     -2.41884767	     -7.72088846	     -6.90794063	    -61.00285860	     -7.89712717	      5.04338067	      0.00000000	     11.05019378	      0.28774852	    -12.32630202	    -19.41864231	      2.32087645	     15.12475834	      0.00000000	    -18.60666490	     -5.04357720	      0.40986197
      1.46666667	      6.46895835	      0.17441687	     -3.90677982	      0.60272859	      1.03118720	      0.00977889	      0.00275475	     -8.04143256	     -7.40994511	    -64.12547003	     -6.55220809	      5.04337843	      0.00000000	      9.44036287	      0.63986271	    -11.76980151	    -18.68305301	      3.03990112	     15.12475866	      0.00000000	    -18.58496646	     -4.66042644	     -0.58206365
      1.48333333	      6.67823708	      0.14147749	     -3.64981844	      0.60183625	      1.03455582	      0.00705754	      2.40616985	     -8.19087227	     -7.39932615	    -66.78550209	     -4.44484905	      5.04337708	      0.00000000	      7.53289352	      0.98329766	    -11.48651828	    -17.56135577	      3.51763569	     15.12475891	      0.00000000	    -18.74761222	     -4.41110745	     -1.24273175
      1.50000000	      6.61482826	     -0.05761772	     -3.12989861	      0.60071334	      1.03723500	      0.00432031	      4.91537870	     -7.95024125	     -7.55061881	    -68.62976324	     -2.28269423	      5.04337638	      0.00000000	      6.07057021	      1.10857171	    -10.86686504	    -16.70759409	      4.08883954	     15.12475915	      0.00000000	    -18.74758582	     -3.94954431	     -2.04109189
      1.51666667	      6.63510144	     -0.38680992	     -2.46179120	      0.59937879	      1.03987377	      0.00183961	      7.14723320	     -7.47893319	     -7.89065674	    -69.59309776	     -0.46376594	      5.04337637	      0.00000000	      4.39983120	      1.07522424	    -10.11882230	    -15.56875241	      4.52092948	     15.12475945	      0.00000000	    -18.80804227	     -3.26973884	     -2.83794910
      1.53333333	      6.65926293	     -0.68562137	     -1.89711403	      0.59814240	      1.04219400	     -0.00052341	      9.25246744	     -6.92776550	     -8.05863563	    -69.75480762	      0.90165722	      5.04337655	      0.00000000	      2.63407144	      1.04683353	     -9.50837564	    -14.25567971	      4.87378809	     15.12475968	      0.00000000	    -18.88243917	     -2.67354506	     -3.75887167
      1.55000000	      6.46328378	     -0.77864424	     -1.49595265	      0.59576818	      1.04330183	     -0.00244387	     11.67203113	     -6.54717899	     -8.07080455	    -69.41868284	      1.88751999	      5.04337747	      0.00000000	      1.32906516	      1.15574251	     -9.11024851	    -13.26642804	      5.29651574	     15.12476001	      0.00000000	    -18.82229441	     -2.37216280	     -4.25085460
      1.56666667	      6.46232485	     -1.18197418	     -0.68783410	      0.59437769	      1.04471768	     -0.00446758	     13.35941152	     -5.88499029	     -8.64641643	    -67.94953951	      2.47530711	      5.04337822	      0.00000000	     -0.28342939	      0.89815017	     -8.28284166	    -12.16142440	      5.74843744	     15.12476025	      0.00000000	    -18.88532693	     -1.64750663	     -5.04951145
      1.58333333	      6.38700508	     -1.40378576	     -0.22571348	      0.59235147	      1.04531974	     -0.00596277	     15.12641325	     -5.40158466	     -8.92512364	    -65.93817550	      2.85830835	      5.04337936	      0.00000000	     -1.68842908	      0.78084389	     -7.79829600	    -11.27162698	      6.28164342	     15.12476057	      0.00000000	    -18.91215756	     -1.19571897	     -5.59368603
      1.60000000	      6.34963582	     -1.63071167	      0.03507534	      0.59114501	      1.04571253	     -0.00715777	     16.56589788	     -4.87810215	     -9.07705897	    -63.12956288	      3.11325051	      5.04338011	      0.00000000	     -3.35791454	      0.66121244	     -7.49261538	    -10.03149163	      6.68608154	     15.12476091	      0.00000000	    -18.94684644	     -0.76282327	     -5.79831182
      1.61666667	      6.22258289	     -1.61691944	      0.39394568	      0.58823681	      1.04528469	     -0.00837117	     17.97446738	     -4.74826077	     -9.49006651	    -59.74946802	      3.33441296	      5.04338062	      0.00000000	     -4.67337671	      0.75199024	     -7.01815888	     -9.07310018	      7.08983059	     15.12476106	      0.00000000	    -19.09498383	     -0.61606927	     -6.02022989
      1.63333333	      5.84549198	     -1.66208585	      0.55164924	      0.58617343	      1.04385983	     -0.00925076	     19.34000260	     -4.59790476	    -10.00852614	    -55.68771086	      3.55141458	      5.04338077	      0.00000000	     -5.69909590	      0.77867299	     -6.77595499	     -8.31313180	      7.69654048	     15.12476121	      0.00000000	    -18.74831399	     -0.41188667	     -6.14808260
      1.65000000	      5.69937088	     -1.42541590	      0.49508679	      0.58380551	      1.04230114	     -0.01006389	     20.21019679	     -4.74213211	    -10.51684427	    -50.97053455	      3.70320480	      5.04338047	      0.00000000	     -7.05405835	      1.14619122	     -6.81761207	     -7.37197050	      8.17982717	     15.12476142	      0.00000000	    -18.74947676	     -0.51271975	     -6.23115183
      1.66666667	      5.65964070	     -1.34031537	      0.56960085	      0.58225903	      1.04073285	     -0.01044079	     20.46476521	     -4.75265313	    -11.59697832	    -45.40941963	      3.60941884	      5.04338017	      0.00000000	     -8.60761369	      1.28938416	     -6.77442893	     -6.34558856	      8.64654003	     15.12476174	      0.00000000	    -18.87458568	     -0.47266341	     -6.22791516
      1.68333333	      5.44028748	     -0.95326122	      0.49266586	      0.58033461	      1.03799541	     -0.01094665	     20.85494771	     -4.96925421	    -12.51805891	    -39.61342070	      3.37801077	      5.04338014	      0.00000000	     -9.76314918	      1.76480106	     -6.77139975	     -5.74717695	      9.34564286	     15.12476206	      0.00000000	    -18.80300104	     -0.75851537	     -6.27330746
      1.70000000	      5.10614954	     -0.65836582	      0.46259387	      0.57928885	      1.03486971	     -0.01094775	     20.97127440	     -4.88745931	    -13.45689906	    -33.21378276	      3.01662889	      5.04338053	      0.00000000	    -10.91642828	      2.10202622	     -6.71623351	     -5.02019265	     10.02817813	     15.12476238	      0.00000000	    -18.50175209	     -0.96542779	     -6.36582335
      1.71666667	      5.19276097	     -0.17222597	      0.42308160	      0.57785776	      1.03215121	     -0.01075170	     20.48595621	     -4.78420010	    -13.87463975	    -26.55280156	      2.54089528	      5.04338165	      0.00000000	    -12.44061882	      2.64003081	     -6.62002723	     -4.42544453	     10.69680145	     15.12476237	      0.00000000	    -18.76614651	     -1.40680712	     -6.37615212
      1.73333333	      5.00989325	      0.34249479	      0.34867725	      0.57668318	      1.02844972	     -0.01057232	     20.19543101	     -4.57051293	    -13.55279786	    -19.92948404	      2.13986078	      5.04338292	      0.00000000	    -13.74473294	      3.24454133	     -6.50455653	     -3.74263558	     11.39327601	     15.12476227	      0.00000000	    -18.71932524	     -1.84297661	     -6.29736025
      1.75000000	      4.84837745	      0.91070843	      0.32246674	      0.57623879	      1.02453338	     -0.01017701	     19.75659633	     -4.40644661	    -12.57151962	    -13.56040707	      1.86841403	      5.04338437	      0.00000000	    -15.05111743	      3.85706010	     -6.26933420	     -3.20323389	     12.10876502	     15.12476207	      0.00000000	    -18.53532862	     -2.29610158	     -6.62112602
      1.76666667	      4.80547418	      1.45317205	      0.37274853	      0.57616680	      1.02057666	     -0.00951686	     19.18311548	     -4.32428106	    -11.13336258	     -7.91569646	      1.81001106	      5.04338557	      0.00000000	    -16.45064103	      4.35569571	     -5.90732539	     -2.78468417	     12.81217478	     15.12476229	      0.00000000	    -18.51252257	     -2.72951442	     -6.86275150
      1.78333333	      4.78509042	      1.88493850	      0.62244328	      0.57661316	      1.01664625	     -0.00909296	     18.63321755	     -4.35504347	     -9.70872200	     -3.38156035	      2.06574063	      5.04338631	      0.00000000	    -17.93580239	      4.64797813	     -5.29695350	     -2.30124276	     13.39076284	     15.12476235	      0.00000000	    -18.40549402	     -2.93954821	     -7.37247380
      1.80000000	      4.73100411	      2.25547338	      0.79012738	      0.57692870	      1.01293291	     -0.00840301	     18.37659096	     -4.43482014	     -8.31100121	     -0.32364660	      2.41193473	      5.04338676	      0.00000000	    -19.12154697	      4.83366911	     -4.74408217	     -2.33631610	     14.05047145	     15.12476263	      0.00000000	    -18.29648202	     -3.10972646	     -7.71774714
      1.81666667	      4.77465417	      2.58239093	      1.11888357	      0.57720703	      1.00998357	     -0.00774695	     18.33893721	     -4.61926670	     -7.37405463	      0.93314125	      2.78002360	      5.04338704	      0.00000000	    -20.11199609	      4.86058902	     -4.04248433	     -2.96275677	     14.74743948	     15.12476298	      0.00000000	    -18.40606020	     -3.19646082	     -8.06118323
      1.83333333	      4.88152005	      2.47374998	      1.57470882	      0.57781573	      1.00776673	     -0.00703888	     18.35616337	     -4.42085419	     -7.09730219	      0.77827482	      2.72059329	      5.04338709	      0.00000000	    -21.07727584	      4.36773920	     -3.32356444	     -3.76715718	     15.37670746	     15.12476319	      0.00000000	    -18.50054236	     -2.69107492	     -8.54026599
